<svg width="100" height="100" viewBox="0 0 100 100" fill="none" xmlns="http://www.w3.org/2000/svg">
                                                <style>
                                                    #arrow{
                                                        animation: translateY 1s linear infinite;
                                                    }
                                                                                                        
                                                    @keyframes translateY {

                                                        0%,
                                                        100% {
                                                            transform: translateY(2px);
                                                        }

                                                        50% {
                                                            transform: translateY(-2px);
                                                        }
                                                    }

                                                </style>
                                                <g id="brand" clip-path="url(#clip0)">
                                                <path id="Vector" d="M97.07 0H85.352C84.5687 0.00634011 83.82 0.323523 83.2706 0.881795C82.7211 1.44007 82.4159 2.19372 82.422 2.977V5.955H58.285C57.7015 4.21992 56.5879 2.71182 55.1014 1.64346C53.615 0.575089 51.8306 0.000369681 50 0.000369681C48.1694 0.000369681 46.385 0.575089 44.8986 1.64346C43.4121 2.71182 42.2985 4.21992 41.715 5.955H17.578V2.977C17.5841 2.19372 17.2789 1.44007 16.7294 0.881795C16.18 0.323523 15.4313 0.00634011 14.648 0L2.93 0C2.14672 0.00634011 1.39802 0.323523 0.848562 0.881795C0.299104 1.44007 -0.00612567 2.19372 -1.13332e-06 2.977V14.887C-0.00612567 15.6703 0.299104 16.4239 0.848562 16.9822C1.39802 17.5405 2.14672 17.8577 2.93 17.864H14.648C15.4313 17.8577 16.18 17.5405 16.7294 16.9822C17.2789 16.4239 17.5841 15.6703 17.578 14.887V11.87H29.761C24.6227 15.2124 20.3391 19.7124 17.2536 25.009C14.1682 30.3057 12.3669 36.2516 11.994 42.37C10.0213 43.0753 8.35843 44.45 7.29491 46.255C6.23139 48.06 5.8346 50.1807 6.17361 52.2481C6.51262 54.3155 7.56596 56.1985 9.15024 57.5692C10.7345 58.94 12.7494 59.7117 14.844 59.75C16.9235 59.712 18.9249 58.9512 20.5046 57.5983C22.0843 56.2455 23.1438 54.3849 23.5011 52.336C23.8585 50.287 23.4914 48.1776 22.463 46.3699C21.4345 44.5621 19.8088 43.1687 17.865 42.429C18.905 28.4 28.841 16.326 42.128 12.9C42.8373 14.3867 43.953 15.6421 45.3462 16.521C46.7393 17.3999 48.3528 17.8664 50 17.8664C51.6472 17.8664 53.2607 17.3999 54.6538 16.521C56.047 15.6421 57.1627 14.3867 57.872 12.9C71.159 16.327 81.095 28.4 82.135 42.428C80.1875 43.14 78.5543 44.5173 77.524 46.3168C76.4937 48.1162 76.1325 50.2219 76.5042 52.2618C76.876 54.3018 77.9568 56.1447 79.5557 57.465C81.1546 58.7852 83.1687 59.4979 85.2421 59.4771C87.3156 59.4562 89.3149 58.7032 90.887 57.3511C92.459 55.9989 93.5025 54.1347 93.8332 52.0877C94.1639 50.0407 93.7605 47.9427 92.6942 46.1643C91.6279 44.386 89.9674 43.0417 88.006 42.369C87.6324 36.2563 85.8304 30.3165 82.7448 25.0266C79.6591 19.7367 75.3758 15.2442 70.239 11.91H82.422V14.887C82.4159 15.6703 82.7211 16.4239 83.2706 16.9822C83.82 17.5405 84.5687 17.8577 85.352 17.864H97.07C97.8533 17.8577 98.602 17.5405 99.1514 16.9822C99.7009 16.4239 100.006 15.6703 100 14.887V2.977C100.006 2.19372 99.7009 1.44007 99.1514 0.881795C98.602 0.323523 97.8533 0.00634011 97.07 0V0ZM11.719 11.91H5.859V5.955H11.718L11.719 11.91ZM14.844 53.793C14.253 53.8025 13.6726 53.636 13.1765 53.3145C12.6805 52.9931 12.2914 52.5314 12.0586 51.9881C11.8259 51.4447 11.76 50.8445 11.8696 50.2636C11.9791 49.6828 12.2589 49.1477 12.6735 48.7264C13.0882 48.3052 13.6187 48.0168 14.1978 47.8981C14.7768 47.7794 15.378 47.8356 15.925 48.0597C16.4719 48.2837 16.9398 48.6655 17.2691 49.1564C17.5984 49.6472 17.7741 50.2249 17.774 50.816C17.7793 51.599 17.4738 52.3522 16.9246 52.9103C16.3753 53.4684 15.627 53.7859 14.844 53.793V53.793ZM50 11.91C49.409 11.9195 48.8286 11.753 48.3325 11.4316C47.8365 11.1101 47.4474 10.6484 47.2146 10.1051C46.9819 9.56175 46.916 8.96147 47.0256 8.38064C47.1351 7.79981 47.4149 7.2647 47.8295 6.84344C48.2442 6.42219 48.7747 6.13383 49.3538 6.0151C49.9328 5.89636 50.534 5.95261 51.081 6.17668C51.6279 6.40075 52.0958 6.78251 52.4251 7.27336C52.7544 7.76421 52.9301 8.34194 52.93 8.933C52.9353 9.71605 52.6298 10.4692 52.0806 11.0273C51.5313 11.5854 50.783 11.9029 50 11.91V11.91ZM85.156 47.838C85.747 47.8285 86.3274 47.995 86.8235 48.3165C87.3195 48.6379 87.7087 49.0996 87.9414 49.6429C88.1741 50.1863 88.2399 50.7865 88.1304 51.3674C88.0209 51.9482 87.7411 52.4833 87.3265 52.9046C86.9118 53.3258 86.3813 53.6142 85.8022 53.7329C85.2232 53.8516 84.622 53.7954 84.075 53.5713C83.5281 53.3473 83.0602 52.9655 82.7309 52.4746C82.4016 51.9838 82.2259 51.4061 82.226 50.815C82.2207 50.032 82.5262 49.2788 83.0754 48.7207C83.6247 48.1626 84.373 47.8451 85.156 47.838ZM94.141 11.91H88.281V5.955H94.14L94.141 11.91Z" fill="#4654A3"/>
                                                <g id="arrow">
                                                <path id="Vector_2" d="M76.297 59.444L52.477 23.715L52.45 23.678C52.409 23.619 52.366 23.561 52.321 23.506C52.0306 23.1452 51.6601 22.8571 51.2388 22.6646C50.8176 22.4722 50.3572 22.3807 49.8944 22.3974C49.4316 22.4141 48.979 22.5385 48.5727 22.7608C48.1664 22.9832 47.8176 23.2972 47.554 23.678L47.527 23.715L23.707 59.445C23.3251 60.0177 23.1535 60.705 23.2213 61.39C23.2891 62.075 23.5922 62.7153 24.079 63.202C30.0121 69.1395 33.7954 76.8862 34.83 85.216C34.3628 85.592 33.918 85.995 33.498 86.423C30.7157 89.2492 29.1578 93.0571 29.161 97.023C29.1613 97.8125 29.475 98.5695 30.0332 99.1278C30.5915 99.686 31.3485 99.9997 32.138 100H67.868C68.6575 99.9997 69.4145 99.686 69.9728 99.1278C70.531 98.5695 70.8447 97.8125 70.845 97.023C70.8481 93.0571 69.2902 89.2493 66.508 86.423C66.088 85.995 65.6432 85.592 65.176 85.216C66.2105 76.8865 69.9938 69.14 75.927 63.203C76.414 62.716 76.717 62.0751 76.7845 61.3897C76.852 60.7043 76.6797 60.0166 76.297 59.444V59.444ZM49.997 58.118C50.5858 58.118 51.1614 58.2926 51.6509 58.6197C52.1405 58.9468 52.5221 59.4118 52.7474 59.9557C52.9727 60.4997 53.0317 61.0983 52.9168 61.6758C52.8019 62.2533 52.5184 62.7837 52.1021 63.2001C51.6857 63.6164 51.1553 63.8999 50.5778 64.0148C50.0003 64.1297 49.4017 64.0707 48.8578 63.8454C48.3138 63.6201 47.8488 63.2385 47.5217 62.7489C47.1946 62.2594 47.02 61.6838 47.02 61.095C47.0211 60.3047 47.3359 59.5472 47.8952 58.989C48.4546 58.4308 49.2127 58.1175 50.003 58.118H49.997ZM35.617 94.046C36.221 92.2803 37.3532 90.7429 38.8602 89.6423C40.3672 88.5417 42.1762 87.931 44.042 87.893H55.952C57.8178 87.931 59.6267 88.5417 61.1338 89.6423C62.6408 90.7429 63.773 92.2803 64.377 94.046H35.617ZM59.573 82.391C58.3893 82.0894 57.1725 81.9372 55.951 81.938H44.041C42.8195 81.9371 41.6027 82.0893 40.419 82.391C39.0223 74.3511 35.4019 66.863 29.968 60.775L47.018 35.2V52.68C45.0315 53.3824 43.3573 54.7644 42.2912 56.5818C41.2251 58.3992 40.8358 60.535 41.1922 62.6116C41.5485 64.6883 42.6274 66.5721 44.2384 67.9302C45.8493 69.2883 47.8885 70.0331 49.9955 70.0331C52.1025 70.0331 54.1417 69.2883 55.7526 67.9302C57.3636 66.5721 58.4425 64.6883 58.7989 62.6116C59.1552 60.535 58.7659 58.3992 57.6998 56.5818C56.6337 54.7644 54.9595 53.3824 52.973 52.68V35.2L70.023 60.775C64.5906 66.8634 60.9719 74.3515 59.577 82.391H59.573Z" fill="#4654A3"/>
                                                </g>
                                                </g>
                                                <defs>
                                                <clipPath id="clip0">
                                                <rect width="100" height="100" fill="white"/>
                                                </clipPath>
                                                </defs>
                                            </svg>