<svg width="101" height="100" viewBox="0 0 101 100" fill="none" xmlns="http://www.w3.org/2000/svg">
                                        <style>
                                            #hand{
                                                animation: translateY 2s linear infinite;
                                                transform-origin: center;
                                                transform-box: fill-box;
                                            }
                                            #arrow{
                                                animation: translate2 2s linear infinite;
                                                transform-origin: center;
                                                transform-box: fill-box;
                                                animation-delay: 1s;
                                            }
                                            @keyframes translateY {

                                                0%,
                                                100% {
                                                    transform: translateY(0px);
                                                }
                                            
                                                50% {
                                                    transform: translateY(-5px);
                                                }
                                            }
                                            @keyframes translate2 {

                                                0%,
                                                100% {
                                                    transform: translateY(5px);
                                                }
                                            
                                                50% {
                                                    transform: translateY(0px);
                                                }
                                            }
                                        </style>
                                        <g id="discount 1" clip-path="url(#clip0)">
                                        <g id="Group">
                                        <path id="hand" d="M99.289 72.052C98.378 70.0153 96.7398 68.3918 94.6951 67.4991C92.6503 66.6063 90.346 66.5086 88.233 67.225L70.49 73.122C70.3823 71.5995 69.879 70.1315 69.03 68.8631C68.1809 67.5947 67.0155 66.5699 65.649 65.89L41.349 53.784C38.0704 52.147 34.2976 51.7974 30.774 52.804L23.525 54.868C23.1974 52.8008 22.1431 50.9182 20.5517 49.5588C18.9602 48.1995 16.936 47.4524 14.843 47.452H2.93C2.15485 47.4504 1.41079 47.7567 0.861366 48.3035C0.311942 48.8503 0.00211915 49.5929 0 50.368L0 91.242C0.000656048 91.6261 0.0769632 92.0063 0.224565 92.361C0.372166 92.7156 0.588171 93.0377 0.860247 93.3088C1.13232 93.58 1.45514 93.7949 1.81027 93.9413C2.1654 94.0877 2.54588 94.1627 2.93 94.162H20.7C21.0841 94.1627 21.4646 94.0877 21.8197 93.9413C22.1749 93.7949 22.4977 93.58 22.7698 93.3088C23.0418 93.0377 23.2578 92.7156 23.4054 92.361C23.553 92.0063 23.6293 91.6261 23.63 91.242V89.676L38.777 97.223C42.2041 98.933 45.9623 99.8766 49.7907 99.9884C53.6191 100.1 57.426 99.3772 60.947 97.87L94.672 83.552C95.732 83.1023 96.6928 82.4475 97.499 81.6254C98.3053 80.8033 98.9412 79.83 99.3702 78.7614C99.7992 77.6928 100.013 76.55 99.9989 75.3986C99.985 74.2472 99.7437 73.1099 99.289 72.052V72.052ZM17.773 88.323H5.859V53.287H14.844C15.6194 53.2865 16.3634 53.5937 16.9125 54.1411C17.4617 54.6886 17.7711 55.4316 17.773 56.207V88.323ZM92.373 78.184L58.646 92.502C55.9074 93.6762 52.9459 94.2397 49.9674 94.1534C46.9889 94.067 44.065 93.3329 41.399 92.002L23.633 83.152V60.911L32.389 58.419C34.5034 57.8141 36.7677 58.0239 38.735 59.007L63.035 71.113C63.3816 71.2829 63.6911 71.5198 63.9456 71.81C64.2002 72.1002 64.3947 72.438 64.5179 72.8038C64.6412 73.1696 64.6907 73.5562 64.6637 73.9413C64.6366 74.3264 64.5336 74.7023 64.3605 75.0473C64.1873 75.3923 63.9475 75.6996 63.655 75.9514C63.3624 76.2032 63.0228 76.3946 62.6559 76.5144C62.2889 76.6342 61.9019 76.6801 61.5171 76.6495C61.1323 76.6189 60.7574 76.5123 60.414 76.336L45.914 69.114C44.1085 68.2223 42.0528 67.9733 40.0866 68.408C38.1204 68.8428 36.3613 69.9353 35.1 71.505C34.6313 72.1149 34.4216 72.8848 34.5162 73.6481C34.6109 74.4115 35.0023 75.1068 35.6058 75.5837C36.2093 76.0606 36.9763 76.2807 37.7409 76.1964C38.5054 76.112 39.206 75.73 39.691 75.133C40.1107 74.6102 40.696 74.246 41.3505 74.1006C42.0049 73.9552 42.6894 74.0371 43.291 74.333L57.791 81.555C59.3704 82.3417 61.1495 82.6365 62.8982 82.4012C64.6469 82.1659 66.2848 81.4113 67.6 80.235L90.09 72.764C90.8093 72.5148 91.5951 72.5388 92.2977 72.8317C93.0004 73.1246 93.5707 73.6657 93.9 74.352C94.0516 74.7039 94.1323 75.0823 94.1375 75.4655C94.1426 75.8487 94.0721 76.2291 93.93 76.585C93.7878 76.9409 93.5769 77.2652 93.3092 77.5394C93.0415 77.8136 92.7224 78.0323 92.37 78.183L92.373 78.184Z" fill="#4654A3"/>
                                        <g id="arrow">
                                        <path id="Vector" d="M64.631 20.893C64.631 21.4705 64.4597 22.0351 64.1389 22.5153C63.818 22.9955 63.362 23.3697 62.8284 23.5907C62.2949 23.8117 61.7077 23.8696 61.1413 23.7569C60.5749 23.6442 60.0546 23.3661 59.6462 22.9577C59.2379 22.5494 58.9598 22.0291 58.8471 21.4627C58.7344 20.8962 58.7923 20.3091 59.0133 19.7756C59.2343 19.242 59.6085 18.786 60.0887 18.4651C60.5689 18.1443 61.1335 17.973 61.711 17.973C62.4854 17.973 63.2281 18.2806 63.7757 18.8282C64.3233 19.3759 64.631 20.1186 64.631 20.893Z" fill="#4654A3"/>
                                        <path id="Vector_2" d="M76.353 32.614C76.3528 33.1913 76.1815 33.7555 75.8606 34.2354C75.5397 34.7153 75.0838 35.0893 74.5504 35.3101C74.017 35.5309 73.4301 35.5885 72.8639 35.4758C72.2978 35.363 71.7777 35.085 71.3696 34.6767C70.9615 34.2684 70.6836 33.7483 70.571 33.1821C70.4585 32.6159 70.5164 32.029 70.7373 31.4957C70.9583 30.9624 71.3324 30.5066 71.8124 30.1859C72.2924 29.8652 72.8568 29.694 73.434 29.694C73.8174 29.694 74.1971 29.7695 74.5513 29.9163C74.9055 30.063 75.2274 30.2781 75.4984 30.5493C75.7695 30.8205 75.9845 31.1424 76.1311 31.4966C76.2778 31.8509 76.3531 32.2306 76.353 32.614V32.614Z" fill="#4654A3"/>
                                        <path id="Vector_3" d="M75.494 18.837C74.9464 18.2895 74.2038 17.982 73.4295 17.982C72.6552 17.982 71.9126 18.2895 71.365 18.837L59.686 30.516C59.1384 31.0635 58.8309 31.8062 58.8309 32.5805C58.8309 33.3548 59.1384 34.0975 59.686 34.645C60.2335 35.1925 60.9762 35.5001 61.7505 35.5001C62.5248 35.5001 63.2675 35.1925 63.815 34.645L75.494 22.967C75.7653 22.6959 75.9806 22.374 76.1275 22.0197C76.2743 21.6653 76.3499 21.2856 76.3499 20.902C76.3499 20.5184 76.2743 20.1386 76.1275 19.7843C75.9806 19.43 75.7653 19.1081 75.494 18.837V18.837Z" fill="#4654A3"/>
                                        <path id="Vector_4" d="M36.67 34.785L65.87 58.141C66.3863 58.5542 67.0277 58.7798 67.6889 58.7809C68.3502 58.782 68.9923 58.5585 69.51 58.147L98.9 34.791C99.3743 34.4141 99.7196 33.899 99.888 33.3171C100.057 32.7352 100.04 32.1153 99.8403 31.5433C99.6408 30.9712 99.2683 30.4755 98.7744 30.1246C98.2806 29.7737 97.6898 29.5852 97.084 29.585H88.128V2.92C88.128 2.14557 87.8204 1.40285 87.2728 0.855248C86.7251 0.307642 85.9824 1.71366e-07 85.208 1.71366e-07H50.173C49.7895 -0.000131231 49.4097 0.0753071 49.0554 0.222004C48.7011 0.368702 48.3791 0.583782 48.108 0.854955C47.8368 1.12613 47.6217 1.44808 47.475 1.80241C47.3283 2.15674 47.2529 2.5365 47.253 2.92V29.585H38.494C37.889 29.5851 37.2989 29.7731 36.8054 30.123C36.3118 30.4729 35.9391 30.9676 35.7389 31.5385C35.5386 32.1094 35.5206 32.7284 35.6874 33.31C35.8542 33.8916 36.1976 34.407 36.67 34.785V34.785ZM50.17 35.424C50.9444 35.424 51.6872 35.1164 52.2348 34.5688C52.7824 34.0211 53.09 33.2784 53.09 32.504V5.839H82.29V32.5C82.2899 32.8835 82.3653 33.2633 82.512 33.6176C82.6587 33.9719 82.8738 34.2939 83.145 34.565C83.4161 34.8362 83.7381 35.0513 84.0924 35.198C84.4467 35.3447 84.8265 35.4201 85.21 35.42H88.717L67.699 52.12L46.82 35.42L50.17 35.424Z" fill="#4654A3"/>
                                        </g>
                                        </g>
                                        </g>
                                        <defs>
                                        <clipPath id="clip0">
                                        <rect width="100.002" height="100" fill="white"/>
                                        </clipPath>
                                        </defs>
                                    </svg>