<svg width="101" height="100" viewBox="0 0 101 100" fill="none" xmlns="http://www.w3.org/2000/svg">
                                        <style>
                                            #ghohar{
                                                animation: translateY 3s linear infinite;
                                                transform-origin: center;
                                                transform-box: fill-box;
                                                animation-delay: 2s;
                                            }
                                            @keyframes translateY {

                                                0%{
                                                    transform: translateY(0px) rotate(0deg);
                                                }
                                                
                                                50% {
                                                    transform: translateY(10px) rotate(-4deg);
                                            
                                                }
                                                100% {
                                                    transform: translateY(0px)  rotate(0deg); 
                                                }
                                            
                                            }
                                            #hand_1{
                                                animation: rightTop 4s linear infinite;
                                                transform-origin: center;
                                                transform-box: fill-box;
                                            }
                                            @keyframes rightTop {
                                                0% {
                                                    transform: translateX(5px);
                                                }
                                                50% {
                                                    transform: translateX(0px);
                                                }
                                                100% {
                                                    transform: translateX(5px);
                                                }
                                            }
                                            #hand_2{
                                                animation: leftTop 4s linear infinite;
                                                transform-origin: center;
                                                transform-box: fill-box;
                                            }
                                            @keyframes leftTop {
                                                0% {
                                                    transform: translateX(-5px);
                                                }
                                                
                                                50% {
                                                    transform: translateX(0px);
                                                }
                                                100% {
                                                    transform: translateX(-5px);
                                                }
                                            }
                                        </style>
                                        <g id="success 1" clip-path="url(#clip0)">
                                        <path id="ghohar" d="M76.023 22.292C77.4371 20.9811 78.3278 19.202 78.5301 17.2844C78.7323 15.3669 78.2324 13.441 77.123 11.864L72.031 4.8C70.8982 3.36711 69.4688 2.19623 67.8409 1.3677C66.213 0.539175 64.4251 0.0726039 62.6 0L38.317 0C36.4923 0.0730309 34.7051 0.539806 33.0777 1.36832C31.4504 2.19683 30.0215 3.36748 28.889 4.8L23.789 11.867C22.6794 13.444 22.1793 15.3699 22.3816 17.2875C22.5839 19.2051 23.4748 20.9843 24.889 22.295L45.213 40.784C46.6454 42.071 48.5054 42.7789 50.431 42.77H50.479C52.4047 42.7778 54.2643 42.0688 55.696 40.781L76.023 22.292ZM54.07 5.806L55.985 13.506H44.931L46.847 5.806H54.07ZM55.436 19.306L50.458 31.944L45.48 19.306H55.436ZM39.236 19.306L44.261 32.064L30.241 19.309L39.236 19.306ZM61.671 19.306H70.671L56.65 32.067L61.671 19.306ZM67.314 8.19L71.143 13.5H61.964L60.048 5.8H62.596C64.4241 5.94432 66.1214 6.80428 67.319 8.193L67.314 8.19ZM33.593 8.19C34.7908 6.80462 36.4863 5.94701 38.312 5.803H40.859L38.943 13.503H29.764L33.593 8.19Z" fill="#4654A3"/>
                                        <path id="hand_2" d="M40.169 78.648H39.963V58.654C39.9632 58.2727 39.8883 57.8951 39.7424 57.5429C39.5966 57.1906 39.3827 56.8705 39.113 56.601L27.02 44.509C25.4804 42.9624 23.501 41.9287 21.352 41.549V31.314C21.3488 28.4837 20.2231 25.7702 18.2219 23.7688C16.2207 21.7674 13.5073 20.6414 10.677 20.638V20.638C9.27487 20.6377 7.88644 20.9137 6.59099 21.4501C5.29555 21.9865 4.11846 22.7729 3.12697 23.7643C2.13548 24.7557 1.34901 25.9327 0.812475 27.2281C0.27594 28.5235 -0.000146208 29.9119 -1.48374e-05 31.314V60.843C-0.00535665 62.2471 0.268321 63.6383 0.805125 64.9358C1.34193 66.2332 2.13116 67.4111 3.12699 68.401L13.462 78.736C12.8338 78.8922 12.276 79.2542 11.8773 79.7641C11.4787 80.274 11.262 80.9027 11.262 81.55V89.324C11.2652 92.1545 12.391 94.8681 14.3924 96.8696C16.3939 98.871 19.1075 99.9968 21.938 100H32.4C35.2298 99.9958 37.9424 98.8695 39.943 96.8681C41.9436 94.8668 43.0688 92.1538 43.072 89.324V81.55C43.072 80.7809 42.7665 80.0432 42.2226 79.4994C41.6787 78.9555 40.9411 78.65 40.172 78.65L40.169 78.648ZM7.23199 64.296C6.77769 63.844 6.4177 63.3063 6.1729 62.7141C5.92811 62.1218 5.80339 61.4868 5.80599 60.846V31.314C5.80585 30.6745 5.9317 30.0413 6.17633 29.4504C6.42096 28.8596 6.77959 28.3227 7.23173 27.8705C7.68387 27.4182 8.22067 27.0595 8.81147 26.8147C9.40227 26.57 10.0355 26.444 10.675 26.444V26.444C11.9661 26.4456 13.2039 26.9592 14.1168 27.8721C15.0298 28.7851 15.5434 30.0229 15.545 31.314V42.124C13.8984 42.7751 12.4396 43.8255 11.2998 45.1805C10.16 46.5355 9.37506 48.1526 9.01554 49.8864C8.65601 51.6201 8.73323 53.416 9.24023 55.1125C9.74723 56.809 10.6681 58.3528 11.92 59.605L19.615 67.305C19.8845 67.5745 20.2045 67.7883 20.5567 67.9342C20.9088 68.0801 21.2863 68.1552 21.6675 68.1552C22.0487 68.1552 22.4261 68.0801 22.7783 67.9342C23.1305 67.7883 23.4504 67.5745 23.72 67.305C23.9895 67.0355 24.2033 66.7155 24.3492 66.3633C24.4951 66.0111 24.5702 65.6337 24.5702 65.2525C24.5702 64.8713 24.4951 64.4939 24.3492 64.1417C24.2033 63.7895 23.9895 63.4695 23.72 63.2L16.02 55.5C15.3829 54.8628 14.9351 54.0614 14.7263 53.1848C14.5174 52.3083 14.5559 51.391 14.8372 50.535C15.1186 49.679 15.6319 48.9178 16.32 48.3361C17.0081 47.7544 17.8441 47.375 18.735 47.24H18.763C18.9948 47.2067 19.2288 47.19 19.463 47.19C20.1029 47.1883 20.7368 47.3135 21.3279 47.5585C21.9191 47.8034 22.4558 48.1632 22.907 48.617L34.149 59.859V78.651H20.175C20.1979 78.2361 20.1341 77.8209 19.9878 77.432C19.8415 77.0431 19.6157 76.6889 19.325 76.392L7.23199 64.296ZM32.395 94.196H21.936C20.6449 94.1944 19.4071 93.6808 18.4941 92.7679C17.5812 91.8549 17.0676 90.6171 17.066 89.326V84.454H37.266V89.324C37.2647 90.6146 36.7517 91.852 35.8396 92.7651C34.9275 93.6782 33.6906 94.1923 32.4 94.195L32.395 94.196Z" fill="#4654A3"/>
                                        <path id="hand_1" d="M57.04 81.551V89.324C57.0432 92.1545 58.169 94.8681 60.1704 96.8696C62.1719 98.871 64.8855 99.9968 67.716 100H78.175C81.0056 99.9971 83.7196 98.8714 85.7212 96.8699C87.7229 94.8684 88.8488 92.1547 88.852 89.324V81.55C88.8519 80.9027 88.6353 80.274 88.2367 79.7641C87.838 79.2542 87.2802 78.8922 86.652 78.736L96.987 68.401C97.9828 67.4111 98.7721 66.2332 99.3089 64.9358C99.8457 63.6383 100.119 62.2471 100.114 60.843V31.314C100.114 29.9121 99.8381 28.5238 99.3017 27.2285C98.7653 25.9333 97.979 24.7564 96.9877 23.765C95.9965 22.7736 94.8196 21.9872 93.5244 21.4507C92.2292 20.9142 90.8409 20.638 89.439 20.638V20.638C86.6085 20.6412 83.8949 21.767 81.8934 23.7684C79.892 25.7699 78.7662 28.4835 78.763 31.314V41.549C76.614 41.9287 74.6346 42.9624 73.095 44.509L61.003 56.601C60.7333 56.8705 60.5194 57.1906 60.3736 57.5429C60.2277 57.8951 60.1528 58.2727 60.153 58.654V78.648H59.947C59.1779 78.648 58.4402 78.9535 57.8964 79.4974C57.3525 80.0412 57.047 80.7789 57.047 81.548L57.04 81.551ZM80.787 76.389C80.4962 76.6859 80.2705 77.0401 80.1242 77.429C79.9778 77.8179 79.9141 78.2331 79.937 78.648H65.955V59.856L77.197 48.614C77.6482 48.1602 78.1849 47.8004 78.776 47.5555C79.3672 47.3105 80.0011 47.1853 80.641 47.187C80.8752 47.187 81.1092 47.2037 81.341 47.237H81.369C82.2599 47.372 83.0959 47.7514 83.784 48.3331C84.4721 48.9148 84.9854 49.676 85.2668 50.532C85.5481 51.388 85.5865 52.3053 85.3777 53.1818C85.1689 54.0584 84.7211 54.8598 84.084 55.497L76.384 63.197C76.1145 63.4665 75.9007 63.7865 75.7548 64.1387C75.6089 64.4909 75.5338 64.8683 75.5338 65.2495C75.5338 65.6307 75.6089 66.0081 75.7548 66.3603C75.9007 66.7125 76.1145 67.0325 76.384 67.302C76.6535 67.5715 76.9735 67.7853 77.3257 67.9312C77.6779 68.0771 78.0553 68.1522 78.4365 68.1522C78.8177 68.1522 79.1951 68.0771 79.5473 67.9312C79.8995 67.7853 80.2195 67.5715 80.489 67.302L88.184 59.602C89.4351 58.3495 90.3554 56.8056 90.8619 55.1093C91.3685 53.413 91.4455 51.6173 91.086 49.8839C90.7266 48.1504 89.9419 46.5334 88.8026 45.1784C87.6633 43.8234 86.205 42.7727 84.559 42.121V31.314C84.5606 30.0229 85.0742 28.7851 85.9872 27.8721C86.9001 26.9592 88.1379 26.4456 89.429 26.444V26.444C90.0685 26.444 90.7017 26.57 91.2925 26.8147C91.8833 27.0595 92.4201 27.4182 92.8723 27.8705C93.3244 28.3227 93.683 28.8596 93.9276 29.4504C94.1723 30.0413 94.2981 30.6745 94.298 31.314V60.846C94.3006 61.4868 94.1759 62.1218 93.9311 62.7141C93.6863 63.3063 93.3263 63.844 92.872 64.296L80.787 76.389ZM62.846 89.324V84.454H83.046V89.324C83.0444 90.6151 82.5308 91.8529 81.6179 92.7659C80.7049 93.6788 79.4671 94.1924 78.176 94.194H67.716C66.4249 94.1924 65.1871 93.6788 64.2741 92.7659C63.3612 91.8529 62.8476 90.6151 62.846 89.324V89.324Z" fill="#4654A3"/>
                                        </g>
                                        <defs>
                                        <clipPath id="clip0">
                                        <rect width="100.112" height="100" fill="white"/>
                                        </clipPath>
                                        </defs>
                                    </svg>