 <svg width="110" height="110" viewBox="0 0 100 100" fill="none" xmlns="http://www.w3.org/2000/svg">
                                        <style>
                                            #rocket{
                                                
                                                transform-origin: center;
                                                transform-box: fill-box;
                                                animation-delay: -5s;
                                                animation: leftTop 5s infinite;
                                            }
                                            #line_3 , #line_1{
                                                animation: pulse 2s linear infinite;
                                                transform-origin: center;
                                                transform-box: fill-box;
                                                animation-delay: 1s;
                                            }
                                            #line_2{
                                                animation: pulse 3s linear infinite;
                                                transform-origin: center;
                                                transform-box: fill-box;
                                                animation-delay: 1s;
                                            }
                                            @keyframes pulse {
                                                0% {
                                                    transform: scale3d(1, 1, 1);
                                                    opacity: 0;
                                                }

                                                50% {
                                                    transform: scale3d( .8, .8 , .8);
                                                    opacity: .5;
                                                }

                                                100% {
                                                    transform: scale3d(1, 1, 1);
                                                    opacity: 1;
                                                }
                                            }
                                            @keyframes leftTop {
                                                0% {
                                                    transform: translate3d(0,0,0px);
                                                }
                                                
                                                33% {
                                                    transform: translate3d(-5px, -5px, 25px);
                                                }
                                                66% {
                                                    transform: translate3d(5px, 5px, 50px);
                                                }
                                                100% {
                                                    transform: translate3d(0,0,0px);
                                                }
                                            }
                                        </style>
                                        <g id="Group">
                                        <g id="rocket">
                                        <path id="Vector" d="M100.882 7.465C100.78 5.54934 99.9729 3.73913 98.6164 2.38263C97.2599 1.02613 95.4496 0.219166 93.534 0.116998C85.519 -0.321002 69.834 0.104998 54.834 7.862C47.189 11.817 39.103 18.522 32.65 26.262C32.571 26.362 32.493 26.453 32.414 26.549L17.773 27.676C16.5911 27.7635 15.4451 28.1216 14.4237 28.7226C13.4022 29.3236 12.5326 30.1514 11.882 31.142L1.89099 46.254C1.39569 47.0029 1.09664 47.8643 1.02134 48.759C0.946039 49.6537 1.09691 50.5529 1.46008 51.3741C1.82324 52.1952 2.38705 52.9118 3.09963 53.4581C3.81222 54.0043 4.65071 54.3626 5.53799 54.5L17.876 56.41C17.832 56.65 17.789 56.889 17.749 57.129C17.5488 58.3475 17.642 59.5961 18.0208 60.7714C18.3996 61.9466 19.053 63.0147 19.927 63.887L37.113 81.073C38.5717 82.5322 40.5498 83.3529 42.613 83.355C43.0354 83.3565 43.4571 83.323 43.874 83.255C44.114 83.215 44.353 83.171 44.593 83.128L46.5 95.462C46.6363 96.3498 46.9938 97.189 47.5398 97.9022C48.0857 98.6155 48.8025 99.1798 49.6239 99.5431C50.4453 99.9065 51.345 100.057 52.24 99.9813C53.135 99.9054 53.9964 99.6054 54.745 99.109L69.857 89.118C70.8477 88.4675 71.6756 87.5979 72.2766 86.5765C72.8776 85.555 73.2356 84.4089 73.323 83.227L74.454 68.583C74.554 68.504 74.646 68.427 74.741 68.347C82.477 61.894 89.182 53.808 93.141 46.162C100.899 31.162 101.324 15.479 100.886 7.462L100.882 7.465ZM66.626 84.23L52.171 93.787L50.308 81.763C56.6759 79.8446 62.7152 76.9694 68.219 73.236L67.482 82.776C67.4603 83.0677 67.3718 83.3506 67.2234 83.6027C67.0749 83.8548 66.8705 84.0694 66.626 84.23V84.23ZM41.256 76.93L24.07 59.744C23.8553 59.5321 23.6942 59.272 23.5999 58.9855C23.5057 58.6989 23.481 58.394 23.528 58.096C24.0298 55.1336 24.7955 52.222 25.816 49.396L51.6 75.179C48.7738 76.2001 45.8623 76.9675 42.9 77.472C42.602 77.519 42.2971 77.4943 42.0105 77.4001C41.7239 77.3058 41.4639 77.1447 41.252 76.93H41.256ZM18.224 33.518L27.764 32.781C24.0302 38.2847 21.1547 44.324 19.236 50.692L7.21199 48.829L16.769 34.374C16.9297 34.1293 17.1444 33.9249 17.3967 33.7764C17.649 33.628 17.9321 33.5396 18.224 33.518ZM70.988 63.847C66.8418 67.3401 62.288 70.3185 57.426 72.717L28.282 43.572C30.6903 38.7159 33.6679 34.1635 37.152 30.011C43.124 22.852 50.552 16.676 57.529 13.067C71.293 5.947 85.796 5.567 93.215 5.967C93.6887 5.99224 94.1363 6.19178 94.4718 6.52722C94.8072 6.86265 95.0067 7.31029 95.032 7.784C95.432 15.204 95.052 29.705 87.932 43.47C84.323 50.448 78.147 57.875 70.988 63.847V63.847Z" fill="#4654A3"/>
                                        <path id="Vector_2" d="M69.5 46.141C72.8858 46.1381 76.1659 44.9614 78.7814 42.8114C81.397 40.6614 83.1862 37.671 83.8443 34.3498C84.5024 31.0286 83.9887 27.5819 82.3906 24.5969C80.7925 21.612 78.209 19.2735 75.0801 17.9797C71.9512 16.6859 68.4706 16.5169 65.2311 17.5016C61.9916 18.4862 59.1937 20.5635 57.3141 23.3796C55.4344 26.1957 54.5892 29.5764 54.9225 32.9458C55.2558 36.3152 56.747 39.4648 59.142 41.858C60.5015 43.2188 62.1163 44.2976 63.8938 45.0326C65.6713 45.7676 67.5765 46.1443 69.5 46.141V46.141ZM63.285 25.285C64.7226 23.8474 66.6143 22.9527 68.6376 22.7534C70.6609 22.5541 72.6907 23.0626 74.3812 24.1921C76.0717 25.3216 77.3183 27.0023 77.9085 28.9478C78.4988 30.8934 78.3962 32.9834 77.6182 34.8618C76.8403 36.7401 75.4351 38.2907 73.6421 39.2492C71.8491 40.2077 69.7793 40.5149 67.7852 40.1184C65.7911 39.7219 63.9962 38.6463 62.7063 37.0748C61.4163 35.5033 60.7112 33.5331 60.711 31.5C60.7095 30.3457 60.9362 29.2026 61.3779 28.1361C61.8197 27.0697 62.4678 26.1011 63.285 25.286V25.285Z" fill="#4654A3"/>
                                        </g>
                                        <g id="line">
                                        <path id="line_3" d="M3.988 82.41C4.37271 82.4105 4.75373 82.335 5.10914 82.1877C5.46456 82.0405 5.78737 81.8244 6.059 81.552L15.624 71.987C15.904 71.7167 16.1273 71.3934 16.281 71.0359C16.4346 70.6784 16.5155 70.2939 16.519 69.9048C16.5224 69.5157 16.4483 69.1298 16.301 68.7696C16.1536 68.4095 15.936 68.0823 15.6609 67.8071C15.3857 67.5319 15.0585 67.3143 14.6984 67.167C14.3382 67.0197 13.9523 66.9456 13.5632 66.949C13.1741 66.9525 12.7896 67.0334 12.4321 67.187C12.0746 67.3407 11.7513 67.564 11.481 67.844L1.917 77.409C1.5079 77.8188 1.22941 78.3407 1.11669 78.9086C1.00397 79.4766 1.06207 80.0652 1.28366 80.6002C1.50525 81.1352 1.88039 81.5925 2.36171 81.9145C2.84303 82.2364 3.40894 82.4085 3.988 82.409V82.41Z" fill="#4654A3"/>
                                        <path id="line_2" d="M24.39 76.605C23.8405 76.0557 23.0954 75.7471 22.3185 75.7471C21.5416 75.7471 20.7964 76.0557 20.247 76.605L1.85799 94.998C1.57324 95.267 1.34532 95.5904 1.18772 95.949C1.03011 96.3076 0.94601 96.6942 0.940395 97.0859C0.93478 97.4776 1.00776 97.8664 1.15503 98.2294C1.30229 98.5924 1.52085 98.9221 1.79777 99.1992C2.07469 99.4762 2.40436 99.695 2.76728 99.8424C3.13019 99.9898 3.51899 100.063 3.91068 100.058C4.30236 100.052 4.68898 99.9683 5.04767 99.8108C5.40637 99.6534 5.72985 99.4256 5.99899 99.141L24.388 80.752C24.6601 80.48 24.8759 80.1571 25.0232 79.8016C25.1705 79.4462 25.2463 79.0652 25.2463 78.6805C25.2463 78.2958 25.1705 77.9148 25.0232 77.5594C24.8759 77.2039 24.6601 76.881 24.388 76.609L24.39 76.605Z" fill="#4654A3"/>
                                        <path id="line_1" d="M29.014 85.375L19.449 94.94C19.169 95.2102 18.9457 95.5336 18.792 95.8911C18.6384 96.2486 18.5575 96.6331 18.554 97.0222C18.5506 97.4113 18.6247 97.7972 18.772 98.1574C18.9194 98.5175 19.1369 98.8447 19.4121 99.1199C19.6873 99.395 20.0145 99.6126 20.3746 99.76C20.7348 99.9073 21.1207 99.9814 21.5098 99.978C21.8989 99.9745 22.2834 99.8936 22.6409 99.7399C22.9984 99.5863 23.3217 99.363 23.592 99.083L33.157 89.518C33.437 89.2477 33.6603 88.9244 33.814 88.5669C33.9676 88.2094 34.0485 87.8249 34.052 87.4358C34.0554 87.0467 33.9813 86.6608 33.834 86.3006C33.6866 85.9405 33.4691 85.6132 33.1939 85.3381C32.9187 85.0629 32.5915 84.8453 32.2314 84.698C31.8712 84.5507 31.4853 84.4766 31.0962 84.48C30.7071 84.4835 30.3226 84.5644 29.9651 84.718C29.6076 84.8717 29.2843 85.095 29.014 85.375V85.375Z" fill="#4654A3"/>
                                        </g>
                                        </g>
                                    </svg>