 <svg width="135" height="128" viewBox="0 0 135 128" fill="none" xmlns="http://www.w3.org/2000/svg">
                                                <style>
                                                    #screen{
                                                        animation: translateY 1.4s linear infinite; 
                                                    }
                                                                                                        
                                                    @keyframes translateY {

                                                        0%{
                                                            transform: translateY(2px) rotate(-4deg);
                                                        }
                                                        
                                                        50% {
                                                            transform: translateY(-2px) rotate(0deg);

                                                        }
                                                        100% {
                                                            transform: translateY(2px)  rotate(-4deg); 
                                                        }

                                                    }
                                                </style>
                                                <g id="respons 1">
                                                <path id="screen" d="M121.673 17H26.3282C24.6504 17.0017 23.0419 17.6213 21.8555 18.7227C20.6692 19.8241 20.0019 21.3174 20 22.875V81.625C20.0019 83.1826 20.6692 84.6759 21.8555 85.7773C23.0419 86.8787 24.6504 87.4983 26.3282 87.5H59.5515V99.25H53.9615C53.1223 99.25 52.3175 99.5595 51.7241 100.11C51.1308 100.661 50.7974 101.408 50.7974 102.187C50.7974 102.967 51.1308 103.714 51.7241 104.265C52.3175 104.816 53.1223 105.125 53.9615 105.125H77.241C77.4922 106.752 78.3658 108.241 79.702 109.32C81.0383 110.399 82.7481 110.995 84.5189 111H107.778C109.732 110.995 111.604 110.27 112.982 108.985C114.361 107.7 115.135 105.959 115.133 104.146V87.5H121.672C123.35 87.4983 124.958 86.8787 126.144 85.7773C127.331 84.6759 127.998 83.1826 128 81.625V22.875C127.998 21.3176 127.331 19.8244 126.145 18.723C124.959 17.6216 123.35 17.002 121.673 17V17ZM121.673 22.875V69.875H115.133V59.1045C115.135 57.2907 114.361 55.5503 112.982 54.2653C111.604 52.9802 109.732 52.2555 107.778 52.25H84.5189C82.5652 52.2555 80.6936 52.9802 79.3148 54.2653C77.9359 55.5503 77.1625 57.2907 77.1641 59.1045V69.875H26.3282V22.875H121.673ZM108.805 64H83.4922V59.1045C83.4887 58.8483 83.5949 58.6012 83.7874 58.4176C83.9798 58.2339 84.243 58.1287 84.5189 58.125H107.778C108.054 58.1287 108.317 58.2339 108.51 58.4176C108.702 58.6012 108.808 58.8483 108.805 59.1045V64ZM83.4922 69.875H108.805V93.375H83.4922V69.875ZM26.3282 75.75H77.1641V81.625H26.3282V75.75ZM65.8797 87.5H77.1641V99.25H65.8797V87.5ZM107.779 105.125H84.5189C84.243 105.121 83.9798 105.016 83.7874 104.832C83.5949 104.649 83.4887 104.402 83.4922 104.146V99.25H108.805V104.146C108.808 104.402 108.702 104.649 108.51 104.832C108.317 105.016 108.054 105.121 107.778 105.125H107.779ZM115.134 81.625V75.75H121.673V81.625H115.134Z" fill="#4654A3"/>
                                                </g>
                                            </svg>