<svg width="100" height="100" viewBox="0 0 100 100" fill="none" xmlns="http://www.w3.org/2000/svg">
                                                <style>
                                                    #rotate{
                                                        animation: rotation 1.5s linear infinite;
                                                    }   
                                                    @keyframes rotation {
                                                        0% {
                                                            transform: rotate(0deg);
                                                        }
                                                    
                                                        50% {
                                                            transform: rotate(-3deg);
                                                        }
                                                    
                                                        100% {
                                                            transform: rotate(0deg);
                                                        }
                                                    }
                                                </style>
                                                <g id="social 1" clip-path="url(#clip0)">
                                                <path id="rotate" d="M50.024 28.027H69.554C70.2825 31.7771 72.3819 35.1214 75.4427 37.4074C78.5035 39.6935 82.3061 40.7573 86.1088 40.3913C89.9115 40.0254 93.4415 38.256 96.0102 35.4282C98.5789 32.6005 100.002 28.9172 100.002 25.097C100.002 21.2767 98.5789 17.5935 96.0102 14.7657C93.4415 11.938 89.9115 10.1686 86.1088 9.80264C82.3061 9.43671 78.5035 10.5005 75.4427 12.7865C72.3819 15.0726 70.2825 18.4168 69.554 22.167H50.023C49.369 16.659 46.9067 11.5235 43.0217 7.56472C39.1367 3.60591 34.0484 1.04738 28.5538 0.289799C23.0591 -0.46778 17.4683 0.618382 12.657 3.37818C7.84567 6.13799 4.08552 10.4156 1.96541 15.541C-0.154711 20.6665 -0.515062 26.3504 0.940788 31.7026C2.39664 37.0547 5.58647 41.7729 10.0107 45.1183C14.435 48.4636 19.8438 50.2471 25.3902 50.1895C30.9365 50.1319 36.3072 48.2365 40.661 44.8L55.214 59.357C52.33 62.994 50.5165 67.3627 49.977 71.973H30.446C29.7176 68.2228 27.6183 64.8784 24.5575 62.5923C21.4967 60.3061 17.6941 59.2423 13.8913 59.6081C10.0886 59.974 6.55854 61.7434 3.9898 64.5711C1.42105 67.3989 -0.00214386 71.0822 -0.00214386 74.9025C-0.00214386 78.7228 1.42105 82.4061 3.9898 85.2338C6.55854 88.0616 10.0886 89.831 13.8913 90.1969C17.6941 90.5627 21.4967 89.4988 24.5575 87.2127C27.6183 84.9266 29.7176 81.5822 30.446 77.832H49.976C50.6195 83.3559 53.0778 88.51 56.9655 92.4866C60.8532 96.4631 65.9505 99.0372 71.4584 99.8054C76.9663 100.574 82.5734 99.4923 87.4008 96.7312C92.2281 93.97 96.0028 89.6851 98.1331 84.5481C100.263 79.4111 100.629 73.7124 99.1722 68.3453C97.7156 62.9783 94.5192 58.2463 90.0841 54.8911C85.6491 51.5359 80.226 49.7473 74.6651 49.8055C69.1042 49.8638 63.7198 51.7657 59.356 55.213L44.8 40.659C47.6776 37.0137 49.4852 32.6402 50.021 28.027H50.024ZM84.635 15.592C86.5148 15.592 88.3524 16.1494 89.9154 17.1937C91.4784 18.238 92.6967 19.7223 93.4162 21.4589C94.1357 23.1955 94.3241 25.1065 93.9576 26.9502C93.5911 28.7939 92.6861 30.4876 91.3571 31.817C90.0281 33.1464 88.3348 34.0519 86.4912 34.419C84.6476 34.7861 82.7365 34.5983 80.9997 33.8793C79.2628 33.1604 77.7781 31.9426 76.7333 30.3799C75.6886 28.8172 75.1306 26.9798 75.13 25.1C75.1329 22.58 76.1353 20.1641 77.9172 18.3822C79.6991 16.6003 82.115 15.5979 84.635 15.595V15.592ZM5.859 25.1C5.86101 21.9981 6.61306 18.9426 8.05104 16.1941C9.48903 13.4456 11.5703 11.0856 14.1174 9.31529C16.6646 7.54495 19.602 6.41677 22.6793 6.02695C25.7567 5.63713 28.8826 5.99722 31.7907 7.07651C34.6989 8.15581 37.3029 9.92232 39.3808 12.2254C41.4586 14.5285 42.9488 17.2999 43.7242 20.3034C44.4996 23.3069 44.5373 26.4533 43.834 29.4744C43.1306 32.4956 41.7072 35.3018 39.685 37.654C38.6515 33.8397 36.1701 30.5793 32.769 28.567C33.8883 27.1303 34.5817 25.4082 34.7703 23.5968C34.9588 21.7853 34.6349 19.9574 33.8354 18.321C33.0359 16.6846 31.793 15.3056 30.2482 14.3411C28.7034 13.3765 26.9187 12.8651 25.0975 12.8651C23.2763 12.8651 21.4916 13.3765 19.9468 14.3411C18.402 15.3056 17.1591 16.6846 16.3596 18.321C15.5601 19.9574 15.2362 21.7853 15.4247 23.5968C15.6133 25.4082 16.3067 27.1303 17.426 28.567C14.0249 30.5793 11.5435 33.8397 10.51 37.654C7.50524 34.162 5.8547 29.7068 5.859 25.1ZM21.231 22.6C21.2308 21.8355 21.4573 21.088 21.8818 20.4522C22.3064 19.8164 22.9099 19.3207 23.6162 19.0279C24.3224 18.735 25.0996 18.6581 25.8495 18.8069C26.5994 18.9558 27.2884 19.3236 27.8293 19.8639C28.3701 20.4042 28.7387 21.0928 28.8883 21.8426C29.0379 22.5923 28.9618 23.3696 28.6697 24.0761C28.3776 24.7827 27.8825 25.3867 27.2471 25.8119C26.6117 26.2371 25.8645 26.4644 25.1 26.465C24.0747 26.4647 23.0913 26.0576 22.3659 25.3329C21.6405 24.6083 21.2323 23.6253 21.231 22.6ZM15.85 41.98C15.7965 40.7322 15.996 39.4866 16.4366 38.318C16.8773 37.1494 17.5498 36.082 18.4138 35.1802C19.2778 34.2784 20.3153 33.5607 21.464 33.0704C22.6126 32.5802 23.8486 32.3274 25.0975 32.3274C26.3464 32.3274 27.5824 32.5802 28.731 33.0704C29.8797 33.5607 30.9172 34.2784 31.7812 35.1802C32.6452 36.082 33.3177 37.1494 33.7584 38.318C34.199 39.4866 34.3985 40.7322 34.345 41.98C31.5078 43.5256 28.3284 44.3354 25.0975 44.3354C21.8666 44.3354 18.6872 43.5256 15.85 41.98ZM15.365 84.408C13.4849 84.4082 11.647 83.8509 10.0837 82.8066C8.52034 81.7622 7.30178 80.2778 6.58208 78.5409C5.86238 76.8041 5.67387 74.8928 6.04039 73.0488C6.4069 71.2048 7.31199 69.5109 8.64118 68.1813C9.97038 66.8517 11.664 65.9461 13.5079 65.579C15.3518 65.2119 17.2631 65.3998 19.0002 66.1189C20.7373 66.8381 22.2221 68.0562 23.2669 69.6192C24.3117 71.1822 24.8696 73.0199 24.87 74.9C24.8679 77.4205 23.8659 79.8372 22.0839 81.6198C20.3019 83.4023 17.8855 84.4051 15.365 84.408ZM65.655 91.785C65.6034 90.5378 65.8042 89.293 66.2454 88.1253C66.6865 86.9576 67.3588 85.891 68.2221 84.9894C69.0854 84.0878 70.1219 83.3698 71.2694 82.8785C72.4169 82.3871 73.6517 82.1326 74.9 82.13C76.1485 82.1317 77.3839 82.3857 78.5318 82.8768C79.6797 83.3678 80.7166 84.0858 81.5801 84.9875C82.4437 85.8893 83.1161 86.9562 83.557 88.1243C83.9979 89.2924 84.1983 90.5376 84.146 91.785C81.3088 93.3306 78.1294 94.1404 74.8985 94.1404C71.6676 94.1404 68.4882 93.3306 65.651 91.785H65.655ZM71.037 72.4C71.038 71.6355 71.2656 70.8884 71.6912 70.2532C72.1167 69.618 72.721 69.1233 73.4277 68.8316C74.1344 68.5398 74.9117 68.4641 75.6614 68.6141C76.4111 68.7641 77.0994 69.133 77.6395 69.6741C78.1795 70.2153 78.547 70.9045 78.6954 71.6544C78.8439 72.4044 78.7666 73.1816 78.4734 73.8877C78.1802 74.5938 77.6842 75.197 77.0481 75.6213C76.4121 76.0455 75.6645 76.2716 74.9 76.271C73.8747 76.2689 72.8922 75.8601 72.168 75.1344C71.4437 74.4087 71.037 73.4253 71.037 72.4ZM94.137 74.9C94.142 79.5074 92.4918 83.9632 89.487 87.456C88.4535 83.6417 85.9721 80.3813 82.571 78.369C83.6903 76.9323 84.3837 75.2102 84.5723 73.3988C84.7608 71.5873 84.4369 69.7594 83.6374 68.123C82.8379 66.4866 81.595 65.1076 80.0502 64.1431C78.5054 63.1785 76.7207 62.6671 74.8995 62.6671C73.0783 62.6671 71.2936 63.1785 69.7488 64.1431C68.204 65.1076 66.9611 66.4866 66.1616 68.123C65.3621 69.7594 65.0382 71.5873 65.2267 73.3988C65.4153 75.2102 66.1087 76.9323 67.228 78.369C63.8268 80.3812 61.3454 83.6416 60.312 87.456C58.2883 85.1036 56.8635 82.2967 56.1592 79.2746C55.4549 76.2526 55.4919 73.105 56.2671 70.1003C57.0422 67.0956 58.5326 64.323 60.611 62.0188C62.6894 59.7147 65.2943 57.9474 68.2034 56.8676C71.1126 55.7879 74.2397 55.4277 77.3182 55.8178C80.3966 56.2079 83.335 57.3368 85.8829 59.1081C88.4307 60.8794 90.5123 63.2406 91.9503 65.9904C93.3883 68.7402 94.1398 71.7969 94.141 74.9H94.137Z" fill="#4654A3"/>
                                                </g>
                                                <defs>
                                                <clipPath id="clip0">
                                                <rect width="100" height="100" fill="white"/>
                                                </clipPath>
                                                </defs>
                                            </svg>